<?xml version="1.0" encoding="UTF-8"?>
<!DOCTYPE svg PUBLIC "-//W3C//DTD SVG 1.1//EN" "http://www.w3.org/Graphics/SVG/1.1/DTD/svg11.dtd">
<svg xmlns="http://www.w3.org/2000/svg" version="1.1" width="30px" height="31px" style="shape-rendering:geometricPrecision; text-rendering:geometricPrecision; image-rendering:optimizeQuality; fill-rule:evenodd; clip-rule:evenodd" xmlns:xlink="http://www.w3.org/1999/xlink">
<g><path style="opacity:1" fill="#1f273c" d="M 4.5,-0.5 C 4.83333,-0.5 5.16667,-0.5 5.5,-0.5C 6.46799,4.79552 9.46799,8.12885 14.5,9.5C 12.7085,9.36596 11.0418,9.69929 9.5,10.5C 8.31174,9.63638 7.14508,8.63638 6,7.5C 5.53566,8.09442 5.36899,8.76109 5.5,9.5C 3.22427,6.47594 2.89094,3.14261 4.5,-0.5 Z"/></g>
<g><path style="opacity:1" fill="#262b3a" d="M 25.5,-0.5 C 25.8333,-0.5 26.1667,-0.5 26.5,-0.5C 28.0866,3.3332 27.0866,6.3332 23.5,8.5C 23.6309,7.62356 23.2975,6.95689 22.5,6.5C 20.812,7.5213 19.4787,8.85463 18.5,10.5C 16.901,10.7678 15.5676,10.4345 14.5,9.5C 17.6632,7.18882 20.9965,5.02216 24.5,3C 25.3366,1.98873 25.67,0.822066 25.5,-0.5 Z"/></g>
<g><path style="opacity:0.977" fill="#6b72a4" d="M 23.5,8.5 C 21.8333,9.16667 20.1667,9.83333 18.5,10.5C 19.4787,8.85463 20.812,7.5213 22.5,6.5C 23.2975,6.95689 23.6309,7.62356 23.5,8.5 Z"/></g>
<g><path style="opacity:0.982" fill="#ffdf7e" d="M 9.5,10.5 C 8.04125,10.5674 6.70792,10.2341 5.5,9.5C 5.36899,8.76109 5.53566,8.09442 6,7.5C 7.14508,8.63638 8.31174,9.63638 9.5,10.5 Z"/></g>
<g><path style="opacity:0.998" fill="#78644f" d="M 23.5,8.5 C 24.6385,11.0862 26.6385,12.7529 29.5,13.5C 29.5,13.8333 29.5,14.1667 29.5,14.5C 25.7098,15.975 25.7098,17.6416 29.5,19.5C 29.5,21.1667 29.5,22.8333 29.5,24.5C 29.1667,24.5 28.8333,24.5 28.5,24.5C 27.7784,24.9175 27.2784,25.5842 27,26.5C 25.8869,25.2889 24.7202,25.2889 23.5,26.5C 22.6143,25.675 22.281,24.675 22.5,23.5C 23.8367,20.3126 22.8367,19.646 19.5,21.5C 18.1667,21.5 16.8333,21.5 15.5,21.5C 15.2825,17.9405 14.2825,17.9405 12.5,21.5C 10.965,20.6457 9.63163,20.6457 8.5,21.5C 7.86239,26.45 7.02906,26.1167 6,20.5C 5.29342,24.6546 3.46008,25.6546 0.5,23.5C 0.166667,23.5 -0.166667,23.5 -0.5,23.5C -0.5,22.5 -0.5,21.5 -0.5,20.5C 2.32736,19.0293 3.1607,16.6959 2,13.5C 3.62678,12.4677 4.79345,11.1344 5.5,9.5C 6.70792,10.2341 8.04125,10.5674 9.5,10.5C 11.0418,9.69929 12.7085,9.36596 14.5,9.5C 15.5676,10.4345 16.901,10.7678 18.5,10.5C 20.1667,9.83333 21.8333,9.16667 23.5,8.5 Z"/></g>
<g><path style="opacity:0.987" fill="#32528e" d="M 8.5,21.5 C 9.63163,20.6457 10.965,20.6457 12.5,21.5C 14.2726,22.3143 14.7726,23.6476 14,25.5C 12.5295,24.7334 11.0295,24.0668 9.5,23.5C 9.67158,22.5084 9.33825,21.8417 8.5,21.5 Z"/></g>
<g><path style="opacity:0.999" fill="#e4cdbc" d="M 19.5,21.5 C 17.7704,24.7646 18.4371,25.7646 21.5,24.5C 20.8862,27.7658 18.8862,29.0991 15.5,28.5C 13.3659,28.4847 11.3659,27.9847 9.5,27C 10.1712,26.0138 10.1712,24.8471 9.5,23.5C 11.0295,24.0668 12.5295,24.7334 14,25.5C 14.7726,23.6476 14.2726,22.3143 12.5,21.5C 14.2825,17.9405 15.2825,17.9405 15.5,21.5C 16.8333,21.5 18.1667,21.5 19.5,21.5 Z"/></g>
<g><path style="opacity:1" fill="#355490" d="M 22.5,23.5 C 21.8333,23.5 21.5,23.8333 21.5,24.5C 18.4371,25.7646 17.7704,24.7646 19.5,21.5C 22.8367,19.646 23.8367,20.3126 22.5,23.5 Z"/></g>
<g><path style="opacity:1" fill="#42321f" d="M 8.5,21.5 C 9.33825,21.8417 9.67158,22.5084 9.5,23.5C 10.1712,24.8471 10.1712,26.0138 9.5,27C 11.3659,27.9847 13.3659,28.4847 15.5,28.5C 18.8862,29.0991 20.8862,27.7658 21.5,24.5C 21.5,23.8333 21.8333,23.5 22.5,23.5C 22.281,24.675 22.6143,25.675 23.5,26.5C 24.7202,25.2889 25.8869,25.2889 27,26.5C 27.2784,25.5842 27.7784,24.9175 28.5,24.5C 27.5128,27.4872 25.5128,29.4872 22.5,30.5C 17.8333,30.5 13.1667,30.5 8.5,30.5C 6.89683,29.4036 5.39683,28.0703 4,26.5C 3.66667,27.1667 3.33333,27.8333 3,28.5C 1.62829,27.0899 0.794953,25.4233 0.5,23.5C 3.46008,25.6546 5.29342,24.6546 6,20.5C 7.02906,26.1167 7.86239,26.45 8.5,21.5 Z"/></g>
</svg>
